<svg xmlns="http://www.w3.org/2000/svg" viewBox="0 0 39.68 41.08"><defs><style>.cls-1{fill:#029247;}.cls-2{fill:#e79924;}</style></defs><g id="Layer_2" data-name="Layer 2"><g id="Layer_1-2" data-name="Layer 1"><path class="cls-1" d="M8.17,8.9V1.16C8.17.22,8.38,0,9.33,0H19.56A3.6,3.6,0,0,1,22.3,1.09c.2.22.34.18.52,0A3.54,3.54,0,0,1,25.48,0H35.84c.87,0,1.09.23,1.09,1.09q0,7.82,0,15.62c0,.86-.23,1.1-1.09,1.1H25.57a2.06,2.06,0,0,0-2.34,2.05c-.06.43-.31.68-.69.67s-.61-.26-.67-.69a2,2,0,0,0-2.27-2H9.28a1.22,1.22,0,0,1-.81-.18,1,1,0,0,1-.3-.9Zm1.37,0v6.8c0,.76,0,.78.76.78h9.24a4.09,4.09,0,0,1,1.82.39c.5.23.51.24.51-.32q0-6.5,0-13a2,2,0,0,0-2.15-2.14h-9.5c-.63,0-.67,0-.67.69Zm26,0V2.1c0-.7,0-.73-.72-.73H25.57a2.07,2.07,0,0,0-2.33,2.35v13c0,.27.08.38.35.23a4.11,4.11,0,0,1,2.15-.47h9.07c.74,0,.76,0,.76-.78Z"/><path class="cls-2" d="M22.83,28.77H18.25a2.85,2.85,0,0,1-.51,0,.66.66,0,0,1,0-1.31,3,3,0,0,1,.6,0h8.13c.71,0,.78-.11.52-.78a2.77,2.77,0,0,0-1.29-1.43,5.06,5.06,0,0,0-2.32-.53c-1.48,0-3,0-4.45,0a3.8,3.8,0,0,1-1.79-.4,7.2,7.2,0,0,0-7,.24A6.74,6.74,0,0,0,8.35,26a.7.7,0,0,1-1,.17.66.66,0,0,1,0-1,8.27,8.27,0,0,1,4.25-2.66,8.62,8.62,0,0,1,6.21.6,2.18,2.18,0,0,0,1.06.25c1.46,0,2.91,0,4.37,0a6.69,6.69,0,0,1,3.07.66,3.71,3.71,0,0,1,1.54,1.37.56.56,0,0,0,.72.27,4,4,0,0,0,1.6-1,18.26,18.26,0,0,1,2.7-2.1,4.27,4.27,0,0,1,3-.81,2.78,2.78,0,0,1,2.26,2,1.86,1.86,0,0,1-.48,2.08C36,27.32,34.37,29,32.74,30.61a2.47,2.47,0,0,1-.89.57c-2.35.84-4.7,1.7-7,2.52a10.1,10.1,0,0,1-3.32.55H15.14a3.36,3.36,0,0,0-1.25.25c-.29.11-.34.28-.11.51l.36.36a.75.75,0,0,1,0,1.2c-1.4,1.42-2.82,2.83-4.24,4.24a.66.66,0,0,1-1,0,.68.68,0,0,1,.09-1q1.68-1.71,3.38-3.4c.46-.46.46-.47,0-.91L5.52,28.65c-.43-.43-.44-.43-.88,0L1.41,31.9a3,3,0,0,1-.39.33.6.6,0,0,1-.82-.08.62.62,0,0,1-.08-.82A2.14,2.14,0,0,1,.4,31q2-2,3.94-3.94c.59-.59.91-.59,1.51,0C7.9,29.13,10,31.19,12,33.26a.72.72,0,0,0,1,.16,4.58,4.58,0,0,1,2.27-.54c2.08,0,4.17,0,6.25,0a8.85,8.85,0,0,0,3.1-.55c2.08-.74,4.16-1.5,6.24-2.23a3.05,3.05,0,0,0,1.18-.75c1.49-1.51,3-3,4.51-4.51.43-.43.45-.65.1-1.15a1.58,1.58,0,0,0-1.95-.63,8.12,8.12,0,0,0-2.55,1.55c-.47.37-.91.78-1.36,1.17A4,4,0,0,1,29,26.87a.47.47,0,0,0-.42.62l0,.3c0,.65-.24,1-.89,1Z"/><path class="cls-1" d="M39.68,11q0,4.21,0,8.43c0,.92-.22,1.15-1.13,1.15H25.74a2.53,2.53,0,0,1-.47,0,.66.66,0,0,1,0-1.32,4.56,4.56,0,0,1,.64,0H37.54c.75,0,.77,0,.77-.77V2.66a3.83,3.83,0,0,1,0-.68A.63.63,0,0,1,39,1.41a.64.64,0,0,1,.65.57,3.43,3.43,0,0,1,0,.64C39.68,5.4,39.68,8.19,39.68,11Z"/><path class="cls-1" d="M5.43,11V2.63a3.5,3.5,0,0,1,0-.56.72.72,0,0,1,.66-.67.7.7,0,0,1,.67.7c0,.2,0,.4,0,.6V18.24c0,.18,0,.37,0,.55a.34.34,0,0,0,.37.38h12a4.52,4.52,0,0,1,.64,0,.73.73,0,0,1,.67.67.74.74,0,0,1-.68.66,3,3,0,0,1-.42,0H6.57c-.92,0-1.14-.22-1.14-1.14Z"/><path class="cls-1" d="M15.75,6.85h3.8c.56,0,.92.3.92.7s-.36.66-.9.67H11.83a1.53,1.53,0,0,1-.3,0A.66.66,0,0,1,11,7.54a.65.65,0,0,1,.6-.66,2.91,2.91,0,0,1,.51,0Z"/><path class="cls-1" d="M15.72,11H12c-.63,0-1-.26-1-.68s.37-.69,1-.69h7.62c.55,0,.92.3.91.7s-.37.66-.9.66Z"/><path class="cls-1" d="M14.36,4.12c.41,0,.82,0,1.23,0a.73.73,0,0,1,.77.66.73.73,0,0,1-.78.69c-.84,0-1.68,0-2.51,0a.71.71,0,0,1-.76-.66.72.72,0,0,1,.77-.69C13.5,4.1,13.93,4.12,14.36,4.12Z"/><path class="cls-1" d="M13,12.34c.41,0,.82,0,1.23,0A.73.73,0,0,1,15,13a.75.75,0,0,1-.8.67c-.82,0-1.65,0-2.47,0a.71.71,0,0,1-.78-.68c0-.38.31-.64.79-.67H13Z"/><path class="cls-1" d="M18.48,12.34c.41,0,.83,0,1.24,0a.68.68,0,1,1,0,1.35c-.85,0-1.7,0-2.56,0a.71.71,0,0,1-.74-.67.71.71,0,0,1,.74-.68C17.6,12.32,18,12.34,18.48,12.34Z"/><path class="cls-1" d="M19.13,4.1a5.85,5.85,0,0,1,.73,0,.64.64,0,0,1,.6.67.62.62,0,0,1-.58.63,5,5,0,0,1-1.49,0,.64.64,0,0,1-.6-.67.63.63,0,0,1,.62-.64,5.77,5.77,0,0,1,.72,0Z"/><path class="cls-1" d="M29.44,6.85h3.81c.58,0,.92.28.92.69s-.37.68-.94.68H25.57a1.58,1.58,0,0,1-.38,0,.65.65,0,0,1,0-1.29,2.15,2.15,0,0,1,.51,0Z"/><path class="cls-1" d="M29.4,5.48H25.55c-.56,0-.92-.3-.91-.7s.36-.66.93-.67H33.4a.76.76,0,0,1,.77.66.76.76,0,0,1-.79.69h-4Z"/><path class="cls-1" d="M29.4,13.7H25.59c-.59,0-1-.28-.95-.7s.36-.67.93-.67H33.4a.76.76,0,0,1,.77.66.75.75,0,0,1-.75.69h-4Z"/><path class="cls-1" d="M26.7,9.6c.41,0,.83,0,1.24,0a.73.73,0,0,1,.75.67.73.73,0,0,1-.75.68c-.85,0-1.7,0-2.56,0a.7.7,0,0,1-.74-.67.71.71,0,0,1,.74-.68C25.82,9.58,26.26,9.6,26.7,9.6Z"/><path class="cls-1" d="M32.13,11c-.4,0-.8,0-1.19,0s-.83-.3-.82-.69.31-.65.79-.66c.83,0,1.65,0,2.48,0a.72.72,0,0,1,.78.68.75.75,0,0,1-.8.67C33,11,32.54,11,32.13,11Z"/></g></g></svg>