<svg xmlns="http://www.w3.org/2000/svg" viewBox="0 0 45.68 39.67"><defs><style>.cls-1{fill:#e79924;}.cls-2{fill:#029247;}</style></defs><g id="Layer_2" data-name="Layer 2"><g id="Layer_1-2" data-name="Layer 1"><path class="cls-1" d="M0,34H3.49V11A2,2,0,0,1,5.66,8.77H21.35v2.41H6.73V33.94H39.38V15.08H42.5V34h3.18c-.22.73-.4,1.42-.64,2.08a6.79,6.79,0,0,1-1.55,2.59,3.53,3.53,0,0,1-2.57,1.05H5.13a4.9,4.9,0,0,1-5-4.44C.06,34.81,0,34.4,0,34Zm24,2.45H20.1c-.37,0-.54.13-.54.4s.17.42.53.42h7.78c.37,0,.56-.16.55-.43s-.18-.39-.54-.39Z"/><path class="cls-2" d="M26.55,18.35v-5h-2A1.42,1.42,0,0,1,23,11.9C23,8.44,23,5,23,1.53A1.49,1.49,0,0,1,24.64,0C29.82,0,35,0,40.18,0h3a1.44,1.44,0,0,1,1.6,1.6c0,3.4,0,6.81,0,10.21a1.53,1.53,0,0,1-1.59,1.59c-4,0-8,0-12,0a.6.6,0,0,0-.53.23l-3.82,4.5-.22.24Zm5.52-12a.8.8,0,0,0-.79-.87.84.84,0,0,0-.82.85.81.81,0,0,0,.8.87A.78.78,0,0,0,32.07,6.39Zm2.77,0a.8.8,0,0,0-.8-.86.84.84,0,0,0-.81.86.81.81,0,0,0,.81.86A.78.78,0,0,0,34.84,6.38Zm2.77,0a.81.81,0,0,0-.78-.88.83.83,0,0,0-.83.85.81.81,0,0,0,.79.87A.79.79,0,0,0,37.61,6.4Z"/><path class="cls-2" d="M29.77,24.44A3.15,3.15,0,0,1,27,27.79c-1.15.09-2.32,0-3.47,0H22.22v3.66H14.75c0-.1,0-.21,0-.31v-3c0-.1,0-.2,0-.3a.39.39,0,0,0-.46-.35.37.37,0,0,0-.36.42V31.5H11.21a.13.13,0,0,1,0-.07c0-1.49,0-3,0-4.46a2.51,2.51,0,0,1,2.65-2.54c5.26,0,10.52,0,15.79,0Z"/><path class="cls-2" d="M14.31,19.9a3.3,3.3,0,1,1,3.3,3.29A3.29,3.29,0,0,1,14.31,19.9Z"/></g></g></svg>