<svg xmlns="http://www.w3.org/2000/svg" viewBox="0 0 55.09 43.98"><defs><style>.cls-1{fill:#e79924;}.cls-2{fill:#029247;}</style></defs><g id="Layer_2" data-name="Layer 2"><g id="Layer_1-2" data-name="Layer 1"><rect class="cls-1" width="55.09" height="43.98" rx="3.04"/><path class="cls-2" d="M43.12,43.88c-.5,0-.89,0-1.27,0H3.37C.82,43.94,0,43.08,0,40.43V3.35C0,.83.81,0,3.25,0H51.92c2.3,0,3.14.85,3.15,3.2,0,8.59,0,17.18,0,25.77a1.68,1.68,0,0,1-1,1.71c-1.11.59-2.17,1.3-3.24,2-2-2-4.05-4-6-6.09-.25-.27-.14-1-.06-1.47A18.35,18.35,0,0,0,41.48,11,17.27,17.27,0,0,0,22.94,4.47,18,18,0,0,0,10.15,19.85c-1,9.75,5.1,18.32,14.44,19.92,7,1.21,12.77-1.37,17.13-7.16.17-.22.33-.45.36-.5L53.27,43.44A1.53,1.53,0,0,1,51,43.5c-1.11-.84-2.14-1.81-3.32-2.53a5.21,5.21,0,0,0-2.62-.8C43.24,40.19,42.4,41.81,43.12,43.88Z"/><path class="cls-2" d="M35.59,21.08H28.47v-6c1.74,0,3.45,0,5.17,0a.77.77,0,0,1,.6.42C34.7,17.31,35.12,19.12,35.59,21.08Z"/><path class="cls-2" d="M28.43,28.74V22.9h7.14c-.42,1.88-.79,3.62-1.22,5.35a.86.86,0,0,1-.67.47C32,28.76,30.24,28.74,28.43,28.74Z"/><path class="cls-2" d="M19.87,21.05c.44-1.91.82-3.7,1.27-5.48a.89.89,0,0,1,.68-.48c1.6,0,3.2,0,4.87,0v6Z"/><path class="cls-2" d="M19.88,22.88h6.8v5.86c-1.69,0-3.37,0-5,0a.75.75,0,0,1-.56-.46C20.66,26.53,20.29,24.78,19.88,22.88Z"/><path class="cls-2" d="M19.39,15.06l-1.11,6H12.77a12.51,12.51,0,0,1,1.3-5.62,1,1,0,0,1,.76-.38C16.32,15.05,17.82,15.06,19.39,15.06Z"/><path class="cls-2" d="M18.3,22.89l1,5.85c-1.55,0-3.14,0-4.72,0a.88.88,0,0,1-.61-.44,12.91,12.91,0,0,1-1.24-5.39Z"/><path class="cls-2" d="M36,15.07c1.44,0,2.86,0,4.27,0a1,1,0,0,1,.77.52c.56,1.74,1,3.5,1.6,5.44H37.16Z"/><path class="cls-2" d="M24.88,6.88c-1.42,2-2.93,4-4.45,6.1a.94.94,0,0,1-.64.38c-1.44,0-2.88,0-4.37,0C16.68,10.37,21.47,7.19,24.88,6.88Z"/><path class="cls-2" d="M15.32,30.42c1.46,0,2.8,0,4.14,0a1.15,1.15,0,0,1,.85.42,17.8,17.8,0,0,0,4.91,6.07C22,37.12,16.64,33.47,15.32,30.42Z"/><path class="cls-2" d="M39.79,13.38c-1.49,0-2.82,0-4.15,0a1,1,0,0,1-.74-.42,18.72,18.72,0,0,0-4.81-5.76c-.08-.07-.1-.2-.16-.31C33.43,7.13,37.86,10,39.79,13.38Z"/><path class="cls-2" d="M39.74,30.42c-1.15,2.89-6.46,6.59-9.43,6.49A28.08,28.08,0,0,0,34,32.52c1-1.79,2.15-2.43,4-2.12A10.27,10.27,0,0,0,39.74,30.42Z"/><path class="cls-2" d="M33.48,30.86,28.84,36l-.35-.22V30.53h4.77Z"/><path class="cls-2" d="M26.3,35.94l-4.4-5.1.23-.31h4.55v5.14Z"/><path class="cls-2" d="M33.21,13.33H28.46V8.08A15.74,15.74,0,0,1,33.21,13.33Z"/><path class="cls-2" d="M26.69,8v5.28H22.17A15.3,15.3,0,0,1,26.69,8Z"/><path class="cls-2" d="M37.15,22.87h5.16l.06,1c-1.58-.82-3-1-4.11.55-.9,1.22-.65,2.44.8,4.23H36.13C36.46,26.78,36.79,24.91,37.15,22.87Z"/></g></g></svg>