<svg xmlns="http://www.w3.org/2000/svg" viewBox="0 0 46.88 30.93"><defs><style>.cls-1{fill:#029247;}.cls-2{fill:#e79924;}</style></defs><g id="Layer_2" data-name="Layer 2"><g id="Layer_1-2" data-name="Layer 1"><path class="cls-1" d="M3.79,11.53A2.69,2.69,0,0,0,3,13.33c0,1,0,2,0,3,.07,1.75-.68,2.16-1.49,2.21C.52,18.59,0,17.78,0,16.28A27.52,27.52,0,0,1,.23,12,6.22,6.22,0,0,1,5.52,7a6.34,6.34,0,0,1,1,.11,3.76,3.76,0,0,0,1.49,0,2.28,2.28,0,0,1,2,.23c1.53.77,2.12.73,3.43-.39.71-.6,1.35-1.29,2.08-1.87a5.16,5.16,0,0,1,1.55-.83A1.5,1.5,0,0,1,18.77,5a1.39,1.39,0,0,1-.27,1.8c-1.72,1.4-3.46,2.79-5.25,4.1a8.2,8.2,0,0,1-1.95.75v4.21q0,6.44-.05,12.87a3.68,3.68,0,0,1-.12,1.05,1.55,1.55,0,0,1-1.49,1.16A1.57,1.57,0,0,1,8.2,29.78a3.28,3.28,0,0,1-.12-.94q0-3.84,0-7.68c0-.32.05-.66-.44-.68s-.52.29-.52.67q0,3.78,0,7.56a5.91,5.91,0,0,1,0,.84,1.64,1.64,0,0,1-1.56,1.38A1.62,1.62,0,0,1,4,29.55a6.77,6.77,0,0,1,0-1L3.83,12.28C3.83,12.06,3.81,11.85,3.79,11.53Zm6.54,5.73c0-.27,0-.49,0-.71,0-1.81.07-3.61.1-5.42,0-.38.09-.76.53-.67a3,3,0,0,0,2.52-.82c1.41-1.1,2.79-2.23,4.16-3.38.16-.13.31-.54.24-.64a1,1,0,0,0-.72-.36,1.9,1.9,0,0,0-.93.46c-.78.65-1.51,1.35-2.28,2-1.43,1.21-2.71,1.64-4.42.47A1.29,1.29,0,0,0,8.3,8,3.12,3.12,0,0,1,6.15,8a1.47,1.47,0,0,0-.69-.06,5.33,5.33,0,0,0-4.41,4.42A44.48,44.48,0,0,0,.89,17s0,.05,0,.06c.17.16.32.42.51.46s.37-.24.48-.42A1.37,1.37,0,0,0,2,16.49c0-1.07,0-2.15,0-3.22a4,4,0,0,1,1.44-3c.23-.2.72-.46.85-.36a1.38,1.38,0,0,1,.47.92c.08,1.23.08,2.46.09,3.7,0,.88,0,1.77,0,2.69Zm-5.41,1c0,.21,0,.35,0,.49,0,3.37,0,6.75.05,10.13,0,.47,0,1,.59,1.07.4.07.64-.35.64-1.08V20.79c0-.76.53-1.23,1.41-1.24S9,20,9,20.8c0,2.66,0,5.32,0,8,0,.5-.06,1.06.6,1.19.42.09.66-.38.66-1.19q0-5,0-10c0-.17,0-.35,0-.54Z"/><path class="cls-1" d="M43,11.59c0,.55,0,1.1,0,1.65q0,7.73-.11,15.43a6.52,6.52,0,0,1,0,.77,1.54,1.54,0,0,1-3.08,0,6.68,6.68,0,0,1,0-.89c0-2.49,0-5,0-7.45a.79.79,0,0,0-.28-.61c-.39-.21-.65,0-.65.57q0,3.87,0,7.74a3.08,3.08,0,0,1-.16,1.05,1.5,1.5,0,0,1-2.85,0,4.14,4.14,0,0,1-.16-1.11q-.07-8.31-.13-16.62c0-.2,0-.39,0-.48-1,0-1.94,0-2.88,0a7.14,7.14,0,0,1-3.67-1.27,1.58,1.58,0,0,1-.72-2,1.65,1.65,0,0,1,2.14-.76c.7.24,1.37.53,2.08.73a4.6,4.6,0,0,0,3.81-.64,4.27,4.27,0,0,1,1.21-.6,5.23,5.23,0,0,1,1.31,0,3.86,3.86,0,0,0,1.4,0,3,3,0,0,1,2,0,6.41,6.41,0,0,1,4.6,5.51c.11,1.4.1,2.81.08,4.22a1.48,1.48,0,0,1-1.52,1.63,1.52,1.52,0,0,1-1.46-1.63c0-1.09,0-2.19,0-3.28A2.46,2.46,0,0,0,43,11.59Zm-1,5.67v-.85c0-1.94.06-3.89.12-5.83a.73.73,0,0,1,.29-.57.75.75,0,0,1,.63.13,4,4,0,0,1,1.71,3.12c0,1.17,0,2.35,0,3.52,0,.36,0,.77.55.74s.51-.37.51-.73c0-1.19.06-2.39,0-3.57A5.59,5.59,0,0,0,42.9,8.48a3.09,3.09,0,0,0-2.67-.38,2.06,2.06,0,0,1-1.34.05,2.25,2.25,0,0,0-2.27.44,5.29,5.29,0,0,1-5,.59l-1.72-.64c-.38-.14-.74,0-.84.32a1.1,1.1,0,0,0,.29.73,1.74,1.74,0,0,0,.59.39,7.32,7.32,0,0,0,5.54.6c.65-.17.85,0,.87.62,0,1.62.07,3.25.11,4.88v1.18Zm-5.6,1v.54q0,5,0,10.07c0,.76.24,1.21.65,1.13.66-.11.58-.65.59-1.12V21a1.32,1.32,0,0,1,1.47-1.38A1.27,1.27,0,0,1,40.56,21v8c0,.74.22,1.15.63,1.08.63-.1.61-.63.61-1.11,0-2.64,0-5.28,0-7.93,0-.38.11-.77.13-1.16s0-1,0-1.54Z"/><path class="cls-2" d="M15,25.82a2,2,0,0,1-.18-.41,1,1,0,0,0-1.17-.88c-.55,0-.8-.28-.76-.82,0-.14,0-.28,0-.42,0-.78.11-.89.86-1a1.22,1.22,0,0,0,1.21-1.15c0-.2-.22-.42-.33-.65s-.45-.7-.35-.85a3.67,3.67,0,0,1,1.12-1.1c.13-.08.55.2.79.39a1.07,1.07,0,0,0,1.78-.71c.06-.31.15-.83.32-.88a3.7,3.7,0,0,1,1.52,0c.15,0,.25.43.34.68s0,.86.58,1.09a1,1,0,0,0,1.25-.2c.62-.54.72-.51,1.29.06.79.78.79.78.1,1.7-.17.23-.34.43-.12.73s.18.89.84.92c1.08,0,1.49.73,1.08,1.76-.08.21-.47.38-.75.43-.77.15-1.12.4-1.23,1.13,0,.19.18.4.28.6s.5.73.41.9a3.1,3.1,0,0,1-1,1.08c-.15.1-.55-.17-.82-.29s-.46-.53-.93-.29-1,.43-1,1.15-.17.84-.83.86c-1.15,0-1.3,0-1.29-.8s-.53-1.06-1.12-1.25c-.17-.05-.41.14-.61.23s-.74.51-1,.41a3.22,3.22,0,0,1-1.06-1c-.09-.1,0-.42.1-.59A7.57,7.57,0,0,1,15,25.82Zm7.63,1.3c-.45-.77-.84-1.32-.37-2.33a2.21,2.21,0,0,1,1.93-1.44A1.94,1.94,0,0,1,22.22,22a1.91,1.91,0,0,1,.44-2.25c-.19,0-.28-.07-.3,0-.72.82-1.43.65-2.34.21a1.23,1.23,0,0,1-.88-1.19A1.73,1.73,0,0,0,19,18.2c-.15.12-.18.19-.18.27,0,.81-.24,1.42-1.2,1.49a.82.82,0,0,0-.42.2.84.84,0,0,1-1.22-.1,5,5,0,0,0-.73-.49c0,.25,0,.32.07.35a1.4,1.4,0,0,1,.18,2.13.92.92,0,0,0-.14.45.68.68,0,0,1-.73.62,6.07,6.07,0,0,0-.85.16l-.05.22a1.87,1.87,0,0,1,1.9,1.3c.46,1,0,1.54-.43,2.23a9.48,9.48,0,0,1,2.63-.1A.94.94,0,0,1,18.67,28a2.74,2.74,0,0,0,.16.59l.21,0a1.65,1.65,0,0,1,1.21-1.88A2,2,0,0,1,22.58,27.12Z"/><path class="cls-2" d="M23.3,15.77c-.63.13-1,.38-1,1.08,0,.36-.24.57-.63.54q-.3,0-.6,0c-.41,0-.61-.16-.65-.58s0-.66-.41-.83a.8.8,0,0,0-.91.1c-.58.47-.64.41-1.32-.24-.41-.39-.38-.71,0-1.13.49-.59.24-1.16-.55-1.27s-.74-.23-.77-1c0-.57.14-.89.77-.95s1-.66.55-1.29-.39-.67.26-1.33a.7.7,0,0,1,1.13,0,.6.6,0,0,0,.78.16.62.62,0,0,0,.45-.66c0-.6.3-.83.9-.8.84,0,.94.07,1.06.79a.74.74,0,0,0,1.26.49c.42-.34.75-.42,1.17,0,.64.68.69.72.23,1.33a.71.71,0,0,0-.11.85.65.65,0,0,0,.68.43c.45,0,.74.15.76.68,0,1,0,1.1-.69,1.24-.86.17-1.07.68-.52,1.38a.66.66,0,0,1-.09,1c-.36.32-.66.81-1.24.34C23.62,16,23.44,15.87,23.3,15.77Zm.63-.79c-.78-.57-.09-1,0-1.56.09-.72.57-.91,1.22-1-.76.06-1-.34-1.24-1s-.59-1,0-1.57c-.54.5-.95.31-1.49,0s-.94-.51-1-1.2c.1.84-.47,1-1,1.15s-1,.63-1.54,0a2.06,2.06,0,0,1-1.13,2.67c.83-.1.88.52,1.1,1s.58.95,0,1.52c.64-.68,1.07,0,1.57.08a1.11,1.11,0,0,1,1,1.1A1.86,1.86,0,0,1,23.93,15Z"/><path class="cls-2" d="M27.55,22.56c0-.69-.46-1-1-.71s-.69.31-1.27-.44c-.35-.47-.23-.76.17-1.1a.67.67,0,0,0-.27-1.2c-.7-.24-.73-.33-.61-1.21.08-.61.43-.72,1-.68a.64.64,0,0,0,.61-1c-.35-.7-.33-.69.48-1.31.49-.38.77-.14,1.09.23a.63.63,0,0,0,1.11-.27c.24-.79.25-.77,1.21-.67.63.07.71.45.7,1s.38.91.93.56.84-.18,1.18.28.47.78,0,1.22a.67.67,0,0,0,.32,1.24c.47.12.68.33.6.84s-.06,1.05-.82,1.06-1,.44-.66,1.12c.29.51.09.8-.32,1.09s-.73.52-1.18,0-1.13-.43-1.31.28-.58.61-1.09.55S27.45,23.13,27.55,22.56Zm-.36-6.28a2.22,2.22,0,0,1-1.27,2,2.2,2.2,0,0,1,.58,2.27,2.19,2.19,0,0,1,2,1.33,2.4,2.4,0,0,1,2.31-.7A2.88,2.88,0,0,1,32,19.12,2.67,2.67,0,0,1,31.32,17a2.85,2.85,0,0,1-1.86-1.23A2.24,2.24,0,0,1,27.19,16.28Z"/><path class="cls-1" d="M4.46,2.67A2.79,2.79,0,0,1,6.19.33,2.74,2.74,0,0,1,9.26.64a2.84,2.84,0,0,1,1.11,3.11,5.45,5.45,0,0,1-1,1.94,2.38,2.38,0,0,1-3.7.2A4.38,4.38,0,0,1,4.46,2.67Zm1,.9c.26,1.22,1.19,2.21,2.05,2.14a2.37,2.37,0,0,0,1.82-2c-.47-.26-.88-.51-1.31-.71a1.28,1.28,0,0,0-.75-.14C6.7,3.06,6.13,3.32,5.49,3.57Zm3.79-1A1.78,1.78,0,0,0,7.4,1,1.93,1.93,0,0,0,5.55,2.57a8.11,8.11,0,0,0,1.13-.43c.9-.49,1.19-.48,2,.13A4.47,4.47,0,0,0,9.28,2.6Z"/><path class="cls-1" d="M42.42,3.1A4.13,4.13,0,0,1,41,6,2.32,2.32,0,0,1,38,6.16,3.5,3.5,0,0,1,37.45.78,2.81,2.81,0,0,1,40.66.31,3,3,0,0,1,42.42,3.1Zm-1,.49c-.63-.24-1.18-.49-1.76-.66a1.19,1.19,0,0,0-.76.09c-.45.2-.87.47-1.35.73a2.39,2.39,0,0,0,1.86,2C40.22,5.75,41.13,4.77,41.38,3.59Zm0-1A2,2,0,0,0,39.17,1a1.67,1.67,0,0,0-1.6,1.66,5.34,5.34,0,0,0,.65-.38,1.37,1.37,0,0,1,1.94-.15A10.86,10.86,0,0,0,41.36,2.63Z"/><path class="cls-1" d="M7.93,9.91c0,1.4,0,2.93,0,4.45a3.47,3.47,0,0,1-.3.91H7.3a3.59,3.59,0,0,1-.3-.91c0-1.55,0-3.1,0-4.46l-.86-.5c.17-.23.29-.55.51-.69a1.45,1.45,0,0,1,2,.22c.12.12.21.48.14.56A3.41,3.41,0,0,1,7.93,9.91Z"/><path class="cls-1" d="M39.26,15.27a2.86,2.86,0,0,1-.3-.91c0-1.5,0-3,0-4.47a2.87,2.87,0,0,1-.75-.25c-.09-.05-.11-.34-.06-.48a1.83,1.83,0,0,1,1.7-.62c.14.06.28.15.42.22.3.14.65.3.46.68-.1.2-.46.28-.83.49,0,1.33,0,2.85,0,4.37a3.85,3.85,0,0,1-.29,1Z"/><path class="cls-2" d="M19,21.46a1.93,1.93,0,0,1,2,1.9,1.95,1.95,0,1,1-3.89,0A1.92,1.92,0,0,1,19,21.46Zm0,.94a1.08,1.08,0,0,0-1,1,1,1,0,1,0,2,0A1.08,1.08,0,0,0,19,22.4Z"/><path class="cls-2" d="M21.41,14.05a1.64,1.64,0,0,1-1.65-1.61,1.65,1.65,0,1,1,3.3,0A1.65,1.65,0,0,1,21.41,14.05Zm.77-1.51v-.28c-.27-.16-.54-.47-.79-.45a.9.9,0,0,0-.62.61.55.55,0,0,0,.64.65C21.68,13,21.92,12.73,22.18,12.54Z"/><path class="cls-2" d="M29.07,20.37a1.57,1.57,0,0,1-1.56-1.55A1.55,1.55,0,0,1,29,17.25a1.52,1.52,0,0,1,1.58,1.57A1.56,1.56,0,0,1,29.07,20.37ZM29,19.49l.26,0c.14-.24.4-.5.37-.73a.75.75,0,0,0-.57-.48c-.2,0-.53.35-.52.54S28.81,19.26,29,19.49Z"/></g></g></svg>