<svg xmlns="http://www.w3.org/2000/svg" viewBox="0 0 57.54 51.64"><defs><style>.cls-1{fill:#7ca542;}.cls-2{fill:#029247;}.cls-3{fill:#e79924;}.cls-4{fill:#aa9376;}</style></defs><g id="Layer_2" data-name="Layer 2"><g id="Layer_1-2" data-name="Layer 1"><path class="cls-1" d="M6,29a3.14,3.14,0,0,1,1.66-.86,1.66,1.66,0,0,0,.14.37q1.74,2.81,3.52,5.6a24.27,24.27,0,0,0,1.82,2.79c.1.15.18.51.4.14a8.08,8.08,0,0,0,1.4-2.68,18.57,18.57,0,0,1,.84-3c.5-1.39,1.06-2.74,2.6-3.33.06,0,.1-.11.15-.16a1,1,0,0,0,.59-.18L20.65,27a4.09,4.09,0,0,1,.25.46l2.91,6.09C25,36,26.15,38.48,27.36,41a24.63,24.63,0,0,0,1.52,3c0,.11,0,.26.11.31s.2-.13.25-.24c.43-.88.86-1.76,1.28-2.65l6.9-14.47c.47.12.84.49,1.33.56a2.61,2.61,0,0,0,.78.48,3.69,3.69,0,0,1,2.09,1.79c.2.43.42.85.63,1.29a3,3,0,0,0,.76-.65c.65.46,1.3.9,1.93,1.37a.41.41,0,0,0,.56,0l1.91-1.4c.19.17.37.34.57.49a.4.4,0,0,1,.09.63c-.4.59-.76,1.21-1.13,1.82-.16.26-.31.3-.52,0s-.57-.68-.88-1c-.1-.1-.2-.4-.42-.1a6.59,6.59,0,0,0-1,1.09c-.27.29-.43.23-.61-.07a3.38,3.38,0,0,0-.71-1,.44.44,0,0,0-.05.41c.72,3.09,1.42,6.18,2.15,9.26a5.3,5.3,0,0,0,.37,1.62,16,16,0,0,1,0,3.39c-.1.67-.38,1.29-.48,1.95a11.83,11.83,0,0,0-.8,2.15.74.74,0,0,1-.82.59q-14.05,0-28.09,0c-.55,0-.85-.13-1-.69a14.61,14.61,0,0,0-.51-1.54c-.06-.16,0-.4-.28-.46a1.06,1.06,0,0,0-.12-.68,9,9,0,0,1-.37-4,2.82,2.82,0,0,0-.31-1.63c-1.39-2.91-2.77-5.83-4.17-8.74Q7.15,31.42,6,29ZM39.68,44.85a27.32,27.32,0,0,0-1-4.62,9.36,9.36,0,0,0-.17,2.84c-.11,2.63,0,5.26,0,7.9a18.63,18.63,0,0,0,1-2.55s.09,0,.1,0A4.84,4.84,0,0,0,39.68,44.85ZM18.83,48.94a6,6,0,0,0,.78,2,5.72,5.72,0,0,0,0-2c.08-2.77,0-5.55,0-8.33a.6.6,0,0,0-.18-.47,2.24,2.24,0,0,0-.11.22c-.28,1.36-.58,2.71-.83,4.07A6.39,6.39,0,0,0,18.83,48.94Z"/><path class="cls-2" d="M43,30.41a3,3,0,0,1-.76.65c-.21-.44-.43-.86-.63-1.29A3.69,3.69,0,0,0,39.53,28a2.61,2.61,0,0,1-.78-.48,5.62,5.62,0,0,0-.09-.57A7.8,7.8,0,0,1,38.78,22a2.9,2.9,0,0,0,.28-1.56A5.32,5.32,0,0,0,40.34,20a18.33,18.33,0,0,1,4.59-.68c.19,0,.5.09.51-.22,0-.92,0-1.84,0-2.76,0-.09-.13-.18-.21-.27a1,1,0,0,1,.68-.08,12.31,12.31,0,0,1,5.51,1.31c.1.06.31.25.34,0s.18-.86-.36-1.16a9.57,9.57,0,0,0-1.76-.72,18.91,18.91,0,0,0-5.08-.62.7.7,0,0,1,.26-.08c.56.09.67-.18.66-.69,0-1.36,0-2.72,0-4.08a1,1,0,0,0-.11-.66,2.71,2.71,0,0,1,1.32.48c2.56,1.17,5.11,2.37,7.67,3.57-.18.44-.3.87.2,1.2.1.07.07.21.06.33,0,.41-.08.83-.11,1.24,0,.17,0,.31-.21.36-.71.37-1.42.75-2.14,1.1a.59.59,0,0,0-.36.58,14,14,0,0,1-.17,3.1.68.68,0,0,0,0,.4,7.46,7.46,0,0,1,.27,5.2,3.59,3.59,0,0,0,.61,3.38,5.4,5.4,0,0,1,1,2.2,1.88,1.88,0,0,0,.46.84A8.25,8.25,0,0,1,55.64,37a44.43,44.43,0,0,1,.83,11.39c0,.36-.13.51-.52.5-1.06,0-2.12,0-3.19,0-.32,0-.43-.09-.41-.43.1-1.68-.05-3.35-.05-5a3.41,3.41,0,0,0-.18-.82,5.49,5.49,0,0,1-.79,2A5.48,5.48,0,0,0,51,47.83c.06,1.09.08,1.1-1,1.09l-5.15,0c.1-.66.38-1.28.48-1.95a16,16,0,0,0,0-3.39c0-.21,0-.42,0-.63q0-5,0-10a1,1,0,0,0-.12-.62c.22-.3.32,0,.42.1.31.32.6.66.88,1s.36.22.52,0c.37-.61.73-1.23,1.13-1.82A.4.4,0,0,0,48,30.9c-.2-.15-.38-.32-.57-.49l-.1-.22-.12-1.74.78-.76A7.66,7.66,0,0,0,49.51,26c.2-.36.3-.94,1-.62,0,0,.1-.05.12-.1.22-.75.8-1.36.89-2.17,0-.32,0-.67-.36-.7s-.57-.32-.71-.66a1.58,1.58,0,0,0-.39-.5q-.9-.81-1.83-1.59a2.45,2.45,0,0,0-1.93-.09A7.81,7.81,0,0,1,42.84,21c-1,.24-2.1.24-2.76,1.23,0,0-.1,0-.16.05-.73.2-.9.47-.63,1.2s.56,1.22.85,1.83c.16.43.38.57.69.12a5.74,5.74,0,0,0,1.44,1.83,2.22,2.22,0,0,1,.81,2.81C43.05,30.19,43,30.3,43,30.41Z"/><path class="cls-2" d="M6,29q1.18,2.4,2.36,4.81c1.4,2.91,2.78,5.83,4.17,8.74a2.82,2.82,0,0,1,.31,1.63,9,9,0,0,0,.37,4,1.06,1.06,0,0,1,.12.68c-3.8,0-7.61,0-11.41,0a.67.67,0,0,1-.77-.55C.52,46.61-.19,44.87.05,42.93A35.18,35.18,0,0,1,1,38.52c.49-2,.84-4,1.44-5.89a4.41,4.41,0,0,1,2.74-3.19A7.1,7.1,0,0,0,6,29ZM5.67,48.36c-.06-3,.08-5.9-.17-8.81C4.78,42.48,3.71,45.42,5.67,48.36Z"/><path class="cls-1" d="M22.15,10.71a4.49,4.49,0,0,0,.06-1.37c0-.22-.16-.28-.31-.36Q19.22,7.59,16.52,6.2c-.11-.06-.22-.09-.25-.21s.13-.18.22-.22L28.62.1a.81.81,0,0,1,.77,0l8.86,4.12a3.88,3.88,0,0,1,.33.23.84.84,0,0,0,.14,1.19.24.24,0,0,1,.11.25c-.14.6,0,1.23-.18,1.83-.82.41-1.63.85-2.46,1.24a.59.59,0,0,0-.38.63c0,.71,0,1.42,0,2.13,0,.28-.09.39-.33.42a.92.92,0,0,0-.85-.45,7.75,7.75,0,0,0-.81-.28,21.54,21.54,0,0,0-8.08-.32,6.68,6.68,0,0,0-2.33.6.81.81,0,0,0-.82.46l-.36,0C22.17,11.66,22.34,11.17,22.15,10.71ZM29,7.19c2.27.15,4.54.31,6.55,1.55.1.06.21.1.28-.07a1.19,1.19,0,0,0-.43-1.3A10.72,10.72,0,0,0,31,6.1a5.05,5.05,0,0,0-2.05,0,6,6,0,0,0-1.84.06A11.48,11.48,0,0,0,22.79,7.3a1,1,0,0,0-.57,1.08c0,.34.13.42.42.24a7.45,7.45,0,0,1,1.63-.73A16.75,16.75,0,0,1,29,7.19Z"/><path class="cls-3" d="M18.49,27.9c0,.05-.09.14-.15.16-1.54.59-2.1,1.94-2.6,3.33a18.57,18.57,0,0,0-.84,3,8.08,8.08,0,0,1-1.4,2.68c-.22.37-.3,0-.4-.14.51-.15.09-.48.13-.72a27.69,27.69,0,0,0,.1-4.27,5.65,5.65,0,0,0,0-.58V15.89a5.46,5.46,0,0,0,0-.57c0-.64-.12-1.28-.1-1.93,0-.81,0-.81-.81-.83.15-.13.33-.08.5-.09a10.61,10.61,0,0,1,5.69,1.22c.26-.74.18-.92-.47-1.26a8.18,8.18,0,0,0-1.52-.57,19,19,0,0,0-4.18-.47c.07,0,.14-.09.2-.08.57.08.58-.24.61-.69.1-1.17.11-2.34.11-3.52,0-.16,0-.31.21-.34l7.22,3.33.16.07c-.1.24-.29.49-.09.75.51.65.21,1.3,0,1.95-.52.26-1,.54-1.54.79a.72.72,0,0,0-.51.78,12.8,12.8,0,0,1-.33,3.08c-.06.32-.1.47.31.37.22-.06.37.11.41.32a2.33,2.33,0,0,1-.06,1.31,24.18,24.18,0,0,0-1.46,2.87.72.72,0,0,1-.16.24A6.62,6.62,0,0,1,16.28,24a1.68,1.68,0,0,0-.56,1.89,1.18,1.18,0,0,0,.75,1C17.16,27.2,17.82,27.56,18.49,27.9Z"/><path class="cls-2" d="M38.65,7.71c.18-.6,0-1.23.18-1.83a.24.24,0,0,0-.11-.25.84.84,0,0,1-.14-1.19.78.78,0,0,1,1.09.48c0,.12,0,.3-.13.37-.46.35-.37.83-.31,1.3,0,.23.07.45.11.68.08,1.38.16,2.77.23,4.15,0,.42.22.35.49.22l4.77-2.21c.17-.08.35-.13.53-.2a1,1,0,0,1,.11.66c0,1.36,0,2.72,0,4.08,0,.51-.1.78-.66.69a.7.7,0,0,0-.26.08c-.8.12-1.61.18-2.4.35a10,10,0,0,0-2.71,1,1,1,0,0,0-.34,1.17c.27.35.52-.05.73-.15A11.65,11.65,0,0,1,45.23,16c.08.09.21.18.21.27,0,.92,0,1.84,0,2.76,0,.31-.32.21-.51.22a18.33,18.33,0,0,0-4.59.68,5.32,5.32,0,0,1-1.28.47.83.83,0,0,1-.07-.56c0-.57.06-1.15.1-1.73a.48.48,0,0,0-.28-.56c-.94-.46-1.88-1-2.82-1.44a3.32,3.32,0,0,0,.21-1.68c-.06-.4-.25-.68-.71-.64.82-.49,1.72-.83,2.58-1.24.17-.09.32-.13.33-.4C38.47,10.69,38.57,9.2,38.65,7.71Z"/><path class="cls-4" d="M13.33,15.32a5.46,5.46,0,0,1,0,.57V31.36a5.65,5.65,0,0,1,0,.58c-.05,0-.12,0-.15-.07L10,28.09c-.24-.27-.42-.6-.8-.72l.81-.44a1.69,1.69,0,0,0,.45-2.74A12.68,12.68,0,0,1,9,22.6a2,2,0,0,1-.42-1.06c0-.09,0-.24-.07-.27-.71-.33-.64-1.14-1-1.66a1.28,1.28,0,0,1-.19-.77c0-.81.1-.94.87-1,.14-.6.28-1.21.43-1.82A15.56,15.56,0,0,1,13.33,15.32Z"/><path class="cls-2" d="M13.33,15.32A15.56,15.56,0,0,0,8.59,16c-.28-.05-.45.24-.72.24-.07-.63-.16-1.26-.18-1.89a.71.71,0,0,0-.44-.7C5.82,13,4.41,12.21,2.91,11.42l2.15-1,7.78-3.6c.23-.11.47-.31.73,0-.21,0-.22.18-.21.34,0,1.18,0,2.35-.11,3.52,0,.45,0,.77-.61.69-.06,0-.13,0-.2.08-.63.09-1.27.13-1.89.27a8,8,0,0,0-2.43.88.71.71,0,0,0-.27,1c.2.38.46,0,.66-.12a9,9,0,0,1,3.91-.86c.82,0,.85,0,.81.83C13.21,14,13.35,14.68,13.33,15.32Z"/><path class="cls-2" d="M9.18,27.37c.38.12.56.45.8.72l3.2,3.78s.1.05.15.07a27.69,27.69,0,0,1-.1,4.27c0,.24.38.57-.13.72a24.27,24.27,0,0,1-1.82-2.79q-1.78-2.79-3.52-5.6a1.66,1.66,0,0,1-.14-.37Z"/><path class="cls-1" d="M54.29,16.41c.18-.05.2-.19.21-.36,0-.41.07-.83.11-1.24,0-.12,0-.26-.06-.33-.5-.33-.38-.76-.2-1.2a1,1,0,0,1,1.07.51A2.21,2.21,0,0,0,55.1,16c0,1.37.16,2.73.23,4.09,0,.64-.14,1-.57.91-.59-.06-.6-.47-.56-.94.09-1,.14-2.08.21-3.11C54.42,16.75,54.5,16.55,54.29,16.41Z"/><path class="cls-1" d="M20.9,12.86c.17-.65.47-1.3,0-1.95-.2-.26,0-.51.09-.75a.79.79,0,0,1,.88.43,1.89,1.89,0,0,0-.27,1.9L21.77,16c0,.36.05.74-.46.75s-.56-.29-.52-.7c.06-.71.12-1.43.14-2.14C20.93,13.57,21.13,13.2,20.9,12.86Z"/><path class="cls-1" d="M39.34,7.27c0-.23-.08-.45-.11-.68-.06-.47-.15-1,.31-1.3.09-.07.09-.25.13-.37l2.31,1C41,6.43,40.22,6.92,39.34,7.27Z"/><path class="cls-2" d="M55.1,16a2.21,2.21,0,0,1,.32-2.2l2.12,1Z"/><path class="cls-2" d="M21.56,12.49a1.89,1.89,0,0,1,.27-1.9.43.43,0,0,0,.32.12c.19.46,0,.95.1,1.41Z"/><path class="cls-2" d="M7.87,16.27c.27,0,.44-.29.72-.24-.15.61-.29,1.22-.43,1.82C8.06,17.32,8,16.8,7.87,16.27Z"/><path class="cls-3" d="M47.31,30.19l.1.22-1.91,1.4a.41.41,0,0,1-.56,0c-.63-.47-1.28-.91-1.93-1.37,0-.11,0-.22.07-.33a2.22,2.22,0,0,0-.81-2.81,5.74,5.74,0,0,1-1.44-1.83c-.18-.33-.43-.27-.69-.12-.29-.61-.61-1.2-.85-1.83s-.1-1,.63-1.2c.06,0,.14,0,.16-.05.66-1,1.78-1,2.76-1.23a7.81,7.81,0,0,0,3.42-1.47,2.45,2.45,0,0,1,1.93.09q.93.78,1.83,1.59a1.58,1.58,0,0,1,.39.5c.14.34.25.61.71.66s.4.38.36.7c-.09.81-.67,1.42-.89,2.17,0,.05-.1.11-.12.1-.66-.32-.76.26-1,.62A7.66,7.66,0,0,1,48,27.69l-.78.76a5.38,5.38,0,0,1-1.72.7.21.21,0,0,0-.22.21c0,.15,0,.3.19.32C46.09,29.75,46.65,30.16,47.31,30.19Z"/><path class="cls-2" d="M35.65,26a8.23,8.23,0,0,1,1.77.91l-6.9,14.47c-.42.89-.85,1.77-1.28,2.65,0,.11,0,.31-.25.24s-.1-.2-.11-.31c.45-.42.12-.91.12-1.37,0-2,0-4,0-6a2.78,2.78,0,0,0,.21-.27l4-6.32C34,28.69,34.83,27.36,35.65,26Z"/><path class="cls-2" d="M29,36.6c0,2,0,4,0,6,0,.46.33,1-.12,1.37a24.63,24.63,0,0,1-1.52-3c-1.21-2.47-2.37-5-3.55-7.45L20.9,27.41a4.09,4.09,0,0,0-.25-.46,6.15,6.15,0,0,1,1.8-.88,4,4,0,0,0,.17.36c1.86,3,3.71,6,5.58,8.94C28.46,35.79,28.74,36.19,29,36.6Z"/><path class="cls-2" d="M45.12,32.29a1,1,0,0,1,.12.62q0,5,0,10c0,.21,0,.42,0,.63a5.3,5.3,0,0,1-.37-1.62c-.73-3.08-1.43-6.17-2.15-9.26a.44.44,0,0,1,.05-.41,3.38,3.38,0,0,1,.71,1c.18.3.34.36.61.07A6.59,6.59,0,0,1,45.12,32.29Z"/><path class="cls-3" d="M18.83,48.94a6.39,6.39,0,0,1-.35-4.51c.25-1.36.55-2.71.83-4.07a2.24,2.24,0,0,1,.11-.22.6.6,0,0,1,.18.47c0,2.78.06,5.56,0,8.33Z"/><path class="cls-2" d="M39.57,45.85A5.27,5.27,0,0,0,38.81,44a2.65,2.65,0,0,1-.35-.91,9.36,9.36,0,0,1,.17-2.84,27.32,27.32,0,0,1,1,4.62C39.58,45.18,39.85,45.54,39.57,45.85Z"/><path class="cls-4" d="M39.57,45.85c.28-.31,0-.67.11-1a4.84,4.84,0,0,1-.09,3.55s-.07,0-.1,0A13.81,13.81,0,0,0,39.57,45.85Z"/><path class="cls-1" d="M45.23,16a11.65,11.65,0,0,0-5.39,1.07c-.21.1-.46.5-.73.15a1,1,0,0,1,.34-1.17,10,10,0,0,1,2.71-1c.79-.17,1.6-.23,2.4-.35a18.91,18.91,0,0,1,5.08.62,9.57,9.57,0,0,1,1.76.72c.54.3.41.74.36,1.16s-.24.08-.34,0A12.31,12.31,0,0,0,45.91,16,1,1,0,0,0,45.23,16Z"/><path class="cls-4" d="M47.31,30.19c-.66,0-1.22-.44-1.87-.51-.15,0-.2-.17-.19-.32a.21.21,0,0,1,.22-.21,5.38,5.38,0,0,0,1.72-.7Z"/><path class="cls-4" d="M40.14,25.32c.26-.15.51-.21.69.12C40.52,25.89,40.3,25.75,40.14,25.32Z"/><path class="cls-3" d="M36,16.14c-.33.19-.38.55-.51.87s-.2.72-.64.81a.2.2,0,0,0-.15.22c0,1.21-.93,1.93-1.63,2.75a4,4,0,0,1-.42.4A2.43,2.43,0,0,0,32.15,24c.17.33.51.38.78.55a7.73,7.73,0,0,1,1.06.58c-.6.7-1.19,1.41-1.8,2.09-1,1.07-1.84,2.22-2.86,3.24-.28.28-.41.28-.66,0-.41-.53-.88-1-1.32-1.51-1.07-1.25-2.22-2.44-3.22-3.75.32-.39.83-.47,1.23-.71a1.58,1.58,0,0,0,.67-.94c.45-1.28-.19-2.09-1.05-2.88a3.71,3.71,0,0,1-1.54-2.54.39.39,0,0,0-.14-.3A4.46,4.46,0,0,1,21.92,15a1.73,1.73,0,0,1,.08-.85c.14-.37.48-.18.75-.18s.16-.14.19-.26c.16-.68.33-1.36.49-2a6.68,6.68,0,0,1,2.33-.6,21.54,21.54,0,0,1,8.08.32,7.75,7.75,0,0,1,.81.28,13.15,13.15,0,0,0,.53,1.93c0,.26.07.33.31.21.46,0,.65.24.71.64A3.32,3.32,0,0,1,36,16.14Z"/><path class="cls-3" d="M29,6.05A5.05,5.05,0,0,1,31,6.1a10.72,10.72,0,0,1,4.35,1.27,1.19,1.19,0,0,1,.43,1.3c-.07.17-.18.13-.28.07-2-1.24-4.28-1.4-6.55-1.55Z"/><path class="cls-3" d="M29,6.05V7.19a16.75,16.75,0,0,0-4.72.7,7.45,7.45,0,0,0-1.63.73c-.29.18-.4.1-.42-.24a1,1,0,0,1,.57-1.08,11.48,11.48,0,0,1,4.36-1.19A6,6,0,0,1,29,6.05Z"/><path class="cls-2" d="M23.43,11.68c-.16.68-.33,1.36-.49,2a7.17,7.17,0,0,1-.33-1.58A.81.81,0,0,1,23.43,11.68Z"/><path class="cls-2" d="M35.5,12.13a12.59,12.59,0,0,1-.32,1.48,13.15,13.15,0,0,1-.53-1.93A.92.92,0,0,1,35.5,12.13Z"/><path class="cls-1" d="M12.42,12.56a9,9,0,0,0-3.91.86c-.2.09-.46.5-.66.12a.71.71,0,0,1,.27-1,8,8,0,0,1,2.43-.88c.62-.14,1.26-.18,1.89-.27a19,19,0,0,1,4.18.47,8.18,8.18,0,0,1,1.52.57c.65.34.73.52.47,1.26a10.61,10.61,0,0,0-5.69-1.22C12.75,12.48,12.57,12.43,12.42,12.56Z"/><path class="cls-1" d="M24.13,25.21c1,1.31,2.15,2.5,3.22,3.75.44.5.91,1,1.32,1.51.25.31.38.31.66,0,1-1,1.89-2.17,2.86-3.24.61-.68,1.2-1.39,1.8-2.09a8.71,8.71,0,0,1,1.66.86c-.82,1.33-1.63,2.66-2.45,4l-4,6.32a2.78,2.78,0,0,1-.21.27c-.28-.41-.56-.81-.82-1.23-1.87-3-3.72-6-5.58-8.94a4,4,0,0,1-.17-.36A4.14,4.14,0,0,1,24.13,25.21Z"/></g></g></svg>