<svg xmlns="http://www.w3.org/2000/svg" viewBox="0 0 52.79 52.79"><defs><style>.cls-1{fill:#029247;}.cls-2{fill:#e79924;}.cls-3{fill:#4e4e4e;}</style></defs><g id="Layer_2" data-name="Layer 2"><g id="Layer_1-2" data-name="Layer 1"><path class="cls-1" d="M0,30.72V0H52.32a.47.47,0,0,1,.47.47q0,25.92,0,51.85a.47.47,0,0,1-.47.47H.47A.47.47,0,0,1,0,52.32Q0,42.2,0,32.06c.22,0,.27.19.37.32A1.6,1.6,0,0,0,3.12,32a4.81,4.81,0,0,0,.2-.53c.65-1.94,1.29-3.87,1.95-5.81.05-.15.05-.34.26-.46,0,.42.09.8.09,1.19a33.14,33.14,0,0,1,.17,4.57c-.55,4.94-1.08,9.89-1.62,14.84a1.78,1.78,0,0,0,1.55,2.06,1.75,1.75,0,0,0,1.9-1.63c.4-3.47.77-7,1.16-10.43.07-.68.16-1.36.24-2,.12.06.14.11.15.15Q9.84,40,10.53,46.09a1.75,1.75,0,1,0,3.45-.4c-.22-1.8-.34-3.61-.69-5.39a31.88,31.88,0,0,1-.59-5.93c0-1.5-.47-3-.39-4.49.12-2.21.34-4.42.49-6.63a1,1,0,0,1,.6-.85c1-.43,1.93-.91,2.9-1.35a1.8,1.8,0,0,0,1-1.39q.42-3.21.81-6.42a1.49,1.49,0,1,0-3-.16c-.21,1.7-.43,3.39-.63,5.09a.7.7,0,0,1-.44.58c-.54.22-1.09.43-1.62.68a4,4,0,0,1-1.81.38c-1.23,0-2.46,0-3.68,0A3.85,3.85,0,0,0,3.4,22.25c-1,2.6-2,5.2-3,7.79C.32,30.29.31,30.6,0,30.72ZM28,1.66H23.59c-4.5,0-9,0-13.5,0A3.3,3.3,0,0,0,6.62,4.92c0,1.5,0,3,0,4.49,0,.39.17.5.53.5.76,0,1.51,0,2.27,0,.38,0,.51-.15.51-.52,0-1.05,0-2.1,0-3.15S10.1,5,11.2,5H45.25a.83.83,0,0,1,.93.93c0,.13,0,.27,0,.41v23c0,.27-.11.41-.4.41H41.66c-.31,0-.43-.14-.42-.44s0-.72,0-1.08a1.67,1.67,0,0,0-1.74-1.77q-2.37,0-4.74,0A1.69,1.69,0,0,0,33,28.16c0,.49.22,1.11-.15,1.43s-1,.1-1.45.1H15.11c-.68,0-.74.08-.63.75s.17,1.09.25,1.63c.13.92.13.92,1.07.92H49.19c1.77,0,2-.2,1.94-2,0-.86-.34-1.24-1.18-1.3-.37,0-.48-.17-.47-.51,0-.77,0-1.54,0-2.32V5.34a3.8,3.8,0,0,0-.57-2.21,3.41,3.41,0,0,0-3-1.47ZM24.75,49.48c1.81,0,3.61,0,5.42,0,1.3,0,1.19.2,1.16-1.24a3.65,3.65,0,0,0-3.66-3.69c-2,0-3.91,0-5.87,0a3.58,3.58,0,0,0-3.31,2.16,4.29,4.29,0,0,0-.34,1.91c0,.86,0,.86.83.86Zm16.48,0c1.82,0,3.64,0,5.46,0,1.26,0,1.15.17,1.14-1.17a3.69,3.69,0,0,0-3.75-3.77c-1.91,0-3.82,0-5.72,0a3.69,3.69,0,0,0-3.57,2.69,7,7,0,0,0-.16,1.64c0,.46.15.62.62.62C37.24,49.47,39.24,49.48,41.23,49.48ZM28,39.58a3.3,3.3,0,1,0-3.28,3.3A3.34,3.34,0,0,0,28,39.58Zm13.23-3.29a3.3,3.3,0,1,0,3.26,3.32A3.35,3.35,0,0,0,41.27,36.29ZM9.1,11.56a3.29,3.29,0,1,0,3.27,3.3A3.32,3.32,0,0,0,9.1,11.56Z"/><path class="cls-2" d="M0,30.72c.3-.12.31-.43.4-.68,1-2.59,2-5.19,3-7.79A3.45,3.45,0,0,1,7,19.8c1.22,0,2.44,0,3.65,0a4,4,0,0,0,1.84-.38c.53-.25,1.08-.46,1.62-.68a.66.66,0,0,0,.45-.61c.19-1.69.41-3.37.62-5.06a1.49,1.49,0,1,1,3,.16q-.4,3.27-.82,6.53a1.61,1.61,0,0,1-1,1.28c-1,.44-1.92.92-2.89,1.35a.89.89,0,0,0-.61.85c-.15,2.21-.37,4.42-.49,6.63a22.18,22.18,0,0,0,.33,3.53c.35,3.31.72,6.62,1.08,9.92.09.79.17,1.57.26,2.36a1.75,1.75,0,1,1-3.45.4Q9.84,40,9.17,33.86s0-.09-.15-.15c-.08.68-.17,1.36-.24,2-.39,3.48-.76,7-1.16,10.43a1.75,1.75,0,0,1-1.9,1.63,1.78,1.78,0,0,1-1.55-2.06c.54-5,1.07-9.9,1.62-14.84a33.14,33.14,0,0,0-.17-4.57c0-.39,0-.77-.09-1.19-.21.12-.21.31-.26.46-.66,1.94-1.3,3.87-1.95,5.81a4.81,4.81,0,0,1-.2.53,1.6,1.6,0,0,1-2.74.43c-.1-.13-.15-.33-.37-.32Z"/><path class="cls-2" d="M28,1.66H45.9a3.41,3.41,0,0,1,3,1.47,3.8,3.8,0,0,1,.57,2.21V26.87c0,.78,0,1.55,0,2.32,0,.34.1.49.47.51.84.06,1.17.44,1.18,1.3,0,1.79-.17,2-1.94,2H15.8c-.94,0-.94,0-1.07-.92-.08-.54-.16-1.08-.25-1.63s-.05-.75.63-.75H31.39c.49,0,1.1.2,1.45-.1s.12-.94.15-1.43a1.69,1.69,0,0,1,1.76-1.76q2.37,0,4.74,0a1.67,1.67,0,0,1,1.74,1.77c0,.36,0,.72,0,1.08s.11.44.42.44h4.12c.29,0,.41-.14.4-.41V6.3c0-.14,0-.28,0-.41A.83.83,0,0,0,45.25,5h-34c-1.1,0-1.29.19-1.29,1.28s0,2.1,0,3.15c0,.37-.13.53-.51.52-.76,0-1.51,0-2.27,0-.36,0-.53-.11-.53-.5,0-1.5,0-3,0-4.49a3.3,3.3,0,0,1,3.47-3.26c4.5,0,9,0,13.5,0Z"/><path class="cls-2" d="M24.75,49.48H19c-.83,0-.82,0-.83-.86a4.29,4.29,0,0,1,.34-1.91,3.58,3.58,0,0,1,3.31-2.16c2,0,3.92,0,5.87,0a3.65,3.65,0,0,1,3.66,3.69c0,1.44.14,1.23-1.16,1.24C28.36,49.49,26.56,49.48,24.75,49.48Z"/><path class="cls-2" d="M41.23,49.48c-2,0-4,0-6,0-.47,0-.64-.16-.62-.62a7,7,0,0,1,.16-1.64,3.69,3.69,0,0,1,3.57-2.69c1.9,0,3.81,0,5.72,0a3.69,3.69,0,0,1,3.75,3.77c0,1.34.12,1.16-1.14,1.17C44.87,49.49,43.05,49.48,41.23,49.48Z"/><path class="cls-3" d="M29.7,9.9H17.44c-.87,0-1.19-.46-.91-1.29a.47.47,0,0,1,.41-.34H42c.77,0,.87.1.86.85s-.11.79-.82.79Z"/><path class="cls-3" d="M32.11,13.2H22.33a.87.87,0,0,1-.83-1.35.45.45,0,0,1,.4-.28,5.15,5.15,0,0,1,.56,0H41.93c.89,0,1.19.42.93,1.28-.11.36-.4.37-.71.37h-10Z"/><path class="cls-3" d="M32.22,14.85H42a.87.87,0,0,1,.83,1.35.43.43,0,0,1-.39.28,2.88,2.88,0,0,1-.41,0H22.31c-.77,0-.87-.11-.86-.86s.12-.79.78-.79Z"/><path class="cls-2" d="M28,39.58a3.3,3.3,0,1,1-3.29-3.29A3.33,3.33,0,0,1,28,39.58Z"/><path class="cls-2" d="M41.27,36.29a3.3,3.3,0,1,1-3.33,3.25A3.35,3.35,0,0,1,41.27,36.29Z"/><path class="cls-2" d="M9.1,11.56a3.29,3.29,0,1,1-3.31,3.26A3.33,3.33,0,0,1,9.1,11.56Z"/><path class="cls-2" d="M29.7,9.9H42.06c.71,0,.82-.11.82-.79s-.09-.85-.86-.85H16.94a.47.47,0,0,0-.41.34c-.28.83,0,1.29.91,1.29Z"/><path class="cls-2" d="M32.11,13.2h10c.31,0,.6,0,.71-.37.26-.86,0-1.28-.93-1.28H22.46a5.15,5.15,0,0,0-.56,0,.45.45,0,0,0-.4.28.87.87,0,0,0,.83,1.35Z"/><path class="cls-2" d="M32.22,14.85h-10c-.66,0-.78.13-.78.79s.09.86.86.86H42a2.88,2.88,0,0,0,.41,0,.43.43,0,0,0,.39-.28A.87.87,0,0,0,42,14.85Z"/></g></g></svg>