<svg xmlns="http://www.w3.org/2000/svg" viewBox="0 0 43.52 42.3"><defs><style>.cls-1{fill:#029247;}.cls-2{fill:#e79924;}.cls-3{fill:#fff;}</style></defs><g id="Layer_2" data-name="Layer 2"><g id="Layer_1-2" data-name="Layer 1"><path class="cls-1" d="M22.77,34.61c1,0,1.76,0,2.54,0a2.65,2.65,0,0,1,2.82,2.82c0,1.6,0,3.2,0,4.87H15.5c0-1.79-.07-3.56,0-5.31a2.52,2.52,0,0,1,2.54-2.37c.89,0,1.78,0,2.61,0a7.81,7.81,0,0,1-1.85-1.82,4.36,4.36,0,0,1-.35-2.57,3.34,3.34,0,0,1,3.29-2.69,3.56,3.56,0,0,1,3.44,2.68C25.66,31.88,24.92,33.3,22.77,34.61Z"/><path class="cls-1" d="M29.24,33.66c1-.64,1.89-1.34,2.89-1.91a1.83,1.83,0,0,0,1-1.91c-.08-1.55,0-1.55,1.51-1.55,1.9,0,3.81,0,5.71,0,.84,0,1.22.25,1.21,1.14q-.06,3.06,0,6.11c0,.86-.34,1.21-1.19,1.2-2,0-4.08,0-6.11,0-.87,0-1.23-.33-1.16-1.19,0-.5,0-1,0-1.6H29.34Z"/><path class="cls-1" d="M13.65,33.89H9.8c0,.69,0,1.28,0,1.87s-.32,1-1,1H2.4c-.71,0-1-.29-1-1,0-2.14,0-4.27,0-6.41,0-.71.21-1,1-1q3.21,0,6.41,0c.75,0,1.13.32,1,1-.27,1.47.45,2.27,1.65,2.9a24.45,24.45,0,0,1,2.29,1.51Z"/><path class="cls-1" d="M13.29,5.65a5.52,5.52,0,0,1-5.65,5.6A5.63,5.63,0,0,1,2,5.64,5.72,5.72,0,0,1,7.74,0,5.62,5.62,0,0,1,13.29,5.65Zm-6.71.44a12.63,12.63,0,0,0-2,1.76c-.63.82-.4,1.4.48,2a4.94,4.94,0,0,0,5.64-.19,1,1,0,0,0,.4-1.44A3.18,3.18,0,0,0,8.58,6.28c1.44-1.2,1.64-2.45.65-3.51a2.11,2.11,0,0,0-3,0C5.19,3.75,5.39,5,6.58,6.09Z"/><path class="cls-1" d="M21.75,18.33A5.48,5.48,0,0,1,16.21,24a5.58,5.58,0,0,1-5.68-5.52,5.64,5.64,0,0,1,5.63-5.7A5.54,5.54,0,0,1,21.75,18.33ZM15.38,19a3,3,0,0,0-2.54,1.8,1.1,1.1,0,0,0,.39,1.54,5,5,0,0,0,6-.07A1,1,0,0,0,19.54,21,3.09,3.09,0,0,0,17,19c1.2-.92,1.58-1.73,1.23-2.67a2,2,0,0,0-2-1.48,2,2,0,0,0-2,1.37C13.76,17.2,14.14,18.06,15.38,19Z"/><path class="cls-1" d="M38,12a5.62,5.62,0,0,1-5.52,5.68A5.75,5.75,0,0,1,26.74,12a5.63,5.63,0,0,1,5.58-5.62A5.49,5.49,0,0,1,38,12Zm-4.64.66c1.42-1.41,1.57-2.58.5-3.6a2.07,2.07,0,0,0-3.09.21c-.85,1-.57,2.31.77,3.36a3.27,3.27,0,0,0-2.46,1.86A1.12,1.12,0,0,0,29.48,16a5.1,5.1,0,0,0,5.88,0,1.07,1.07,0,0,0,.4-1.45A3.14,3.14,0,0,0,33.35,12.64Z"/><path class="cls-2" d="M14,2.08c9.45-3.56,23-.16,29.57,11l-1.07.63c-.7-.94-1.34-1.9-2.09-2.78-5.27-6.14-11.93-9.15-20-8.69A36.13,36.13,0,0,0,15.4,3C14.21,3.25,14.23,3.31,14,2.08Z"/><path class="cls-2" d="M26.17,8.35l-.31,1.26A17.11,17.11,0,0,0,4.81,26H3.6C3,15.93,13.35,5.3,26.17,8.35Z"/><path class="cls-2" d="M22.52,16.88c0-.28,0-.52,0-.75s0-.26,0-.38c4.09-.4,10,4.23,9.72,10.29h-1.2C30.56,20.89,27.77,17.81,22.52,16.88Z"/><path class="cls-2" d="M40.18,26.05H38.82a17.76,17.76,0,0,0-2.51-8.7l1.16-.75A18.92,18.92,0,0,1,40.18,26.05Z"/><path class="cls-2" d="M0,13,2.18,10l1,.88-2,2.84Z"/><path class="cls-2" d="M11.2,26l.28-2.17,1.27.31L12.61,26Z"/><path class="cls-3" d="M6.58,6.09C5.39,5,5.19,3.75,6.19,2.74a2.11,2.11,0,0,1,3,0c1,1.06.79,2.31-.65,3.51a3.18,3.18,0,0,1,2.47,1.91,1,1,0,0,1-.4,1.44A4.94,4.94,0,0,1,5,9.82c-.88-.57-1.11-1.15-.48-2A12.63,12.63,0,0,1,6.58,6.09Z"/><path class="cls-3" d="M15.38,19c-1.24-1-1.62-1.81-1.22-2.8a2,2,0,0,1,2-1.37,2,2,0,0,1,2,1.48c.35.94,0,1.75-1.23,2.67a3.09,3.09,0,0,1,2.58,2,1,1,0,0,1-.34,1.29,5,5,0,0,1-6,.07,1.1,1.1,0,0,1-.39-1.54A3,3,0,0,1,15.38,19Z"/><path class="cls-3" d="M33.35,12.64a3.14,3.14,0,0,1,2.41,1.9,1.07,1.07,0,0,1-.4,1.45,5.1,5.1,0,0,1-5.88,0,1.12,1.12,0,0,1-.41-1.55,3.27,3.27,0,0,1,2.46-1.86c-1.34-1-1.62-2.33-.77-3.36A2.07,2.07,0,0,1,33.85,9C34.92,10.06,34.77,11.23,33.35,12.64Z"/></g></g></svg>