<svg xmlns="http://www.w3.org/2000/svg" viewBox="0 0 53.92 51.55"><defs><style>.cls-1{fill:#029247;}.cls-2{fill:#e79924;}.cls-3{fill:#fff;}</style></defs><g id="Layer_2" data-name="Layer 2"><g id="Layer_1-2" data-name="Layer 1"><path class="cls-1" d="M16.85,39l-3.05.5a.93.93,0,0,0-.24.05,6.6,6.6,0,0,1-3.93-.23A2.13,2.13,0,0,1,7.92,37c0-.85,0-1.7.08-2.54A2.81,2.81,0,0,0,6.67,31.8c-.65-.45-1.31-.91-1.92-1.42a2.27,2.27,0,0,1-.72-3c.24-.58.58-1.12.87-1.69.09-.16.17-.33.27-.49a2.85,2.85,0,0,0,0-3.1,25.26,25.26,0,0,1-1.24-2.5,1.93,1.93,0,0,1,.53-2.29A27.41,27.41,0,0,1,6.73,15.6,2.69,2.69,0,0,0,8,13c0-.68-.07-1.37-.09-2.06A7.28,7.28,0,0,1,8,10,2,2,0,0,1,9.53,8.2c.76-.22,1.55-.33,2.33-.49l.59-.11a2.82,2.82,0,0,0,2.2-2c.26-.64.51-1.28.81-1.89a2.34,2.34,0,0,1,3-1.46c.9.21,1.8.47,2.7.69a2.27,2.27,0,0,0,2.05-.48c.5-.41,1-.85,1.48-1.26.25-.22.51-.44.78-.64a2.25,2.25,0,0,1,3,0c.44.33.85.71,1.27,1.07.15.13.31.27.45.41a3,3,0,0,0,3.33.76,18.43,18.43,0,0,1,2-.54,2.29,2.29,0,0,1,2.87,1.36,17.4,17.4,0,0,1,.83,1.94A3,3,0,0,0,42,7.72a17.7,17.7,0,0,1,2.15.41A2.21,2.21,0,0,1,46,10.49c0,.57,0,1.13,0,1.7,0,.31,0,.62,0,.93a2.67,2.67,0,0,0,1.21,2.46c.61.43,1.22.85,1.8,1.3a2.41,2.41,0,0,1,1.19,2.37,7.19,7.19,0,0,1-.59,1.58c-.26.56-.59,1.09-.89,1.64a2.53,2.53,0,0,0,0,2.55c.37.69.75,1.37,1.1,2.07A4.53,4.53,0,0,1,50,28a2,2,0,0,1-.55,2.15c-.52.49-1.12.89-1.68,1.33-.39.31-.8.6-1.17.93A2.1,2.1,0,0,0,45.92,34c0,.55,0,1.1,0,1.66s0,.94,0,1.41a2.18,2.18,0,0,1-1.75,2.24,10.83,10.83,0,0,1-2.3.43,9.37,9.37,0,0,1-1.79-.28l-3-.5c5.87-4.38,8.76-10.12,8-17.46a17.55,17.55,0,0,0-6.92-12.2A18.27,18.27,0,1,0,16.85,39Z"/><path class="cls-1" d="M48,40.79l5.94,4.33-6,.75,1.2,5.67a41.47,41.47,0,0,1-5-4L43,49.38c-.22.36-.36.88-.68,1s-.79-.12-1.2-.21a67.25,67.25,0,0,0-10.21-1.42,65.37,65.37,0,0,0-10.47.2A60.32,60.32,0,0,0,12,50.38c-.34.08-.53,0-.7-.28-.39-.73-.81-1.43-1.22-2.15l-.26-.39a42.78,42.78,0,0,1-5,4L6,45.86l-6-.74,5.94-4.33c.24.37.53.78.76,1.21a.58.58,0,0,0,.8.32A71,71,0,0,1,20,40.05a76.16,76.16,0,0,1,10.68-.23,74.7,74.7,0,0,1,15.79,2.52.5.5,0,0,0,.68-.26C47.42,41.63,47.71,41.21,48,40.79Zm-34.34,4h.07c.22.67.44,1.34.67,2s.2.6.85.54c.26,0,.38-.11.39-.39s.08-.69.12-1l.33-2.76c-.85-.07-.9,0-1,.75S15,45.35,15,46.08a20.92,20.92,0,0,1-.82-2.38c-.16-.59-.55-.23-.84-.25s-.28.21-.3.41c0,.85-.11,1.7-.17,2.55a21.74,21.74,0,0,1-.73-2c-.26-.79-.28-.8-1.09-.6l-.1.05c.05.12.09.25.13.37.4,1,.81,2.06,1.17,3.1.14.41.38.4.71.36s.53-.14.51-.54a9.28,9.28,0,0,1,.08-1C13.57,45.63,13.6,45.21,13.64,44.79Zm21.8-1.94-.85-.06-.13,2.72-1.05-2.25c-.29-.64-.6-.78-1.36-.56l-.25,4,.85,0,.17-2.89,1.11,2.4c.32.67.44.73,1.26.6Zm4.06.4c.27.74.49,1.43.78,2.09s-.11,1.42,0,2.14l.82.11a1.35,1.35,0,0,0,.08-.39,3.69,3.69,0,0,1,1.13-2.55c.24-.28.44-.58.7-.93a3,3,0,0,1-.54-.08.52.52,0,0,0-.71.32c-.2.41-.45.78-.73,1.25-.15-.58-.28-1.07-.42-1.55,0-.11-.13-.26-.22-.28C40.12,43.31,39.84,43.3,39.5,43.25Zm-.32,0-3.13-.31,0,.75,1.06.14-.31,3.28.9.1L38,43.89l1.1.06Zm-8,3c-.28-1-.55-1.91-.82-2.87s-.25-.87-1.17-.86c-.21,0-.31,0-.37.27-.19.65-.42,1.28-.63,1.92s-.39,1.24-.6,1.86c.9.1.91.1,1.14-.66a.37.37,0,0,1,.42-.32c.83,0,.83,0,1.08.79,0,.11.15.27.25.28a5.21,5.21,0,0,0,.8,0ZM29,44.89c.14-.52.28-1,.41-1.47h.08l.37,1.48Z"/><path class="cls-2" d="M28.54,18.91A3.59,3.59,0,0,1,30.45,20a3.28,3.28,0,0,1-.32,4.56,5.23,5.23,0,0,1-2.73,1.22,8.52,8.52,0,0,1-4.68-.55c-.31-.13-.44-.27-.31-.63.2-.59.34-1.19.5-1.81A6.55,6.55,0,0,0,26,23.5a3.7,3.7,0,0,0,1.14-.25,1.43,1.43,0,0,0,1-1.31,1.4,1.4,0,0,0-.77-1.45A6,6,0,0,0,25.76,20a8.2,8.2,0,0,0-1.32,0V17.94c.6,0,1.2,0,1.78-.11a2.81,2.81,0,0,0,1-.4,1.18,1.18,0,0,0-.13-2.06,2.77,2.77,0,0,0-1.9-.16,19.92,19.92,0,0,0-1.93.58c-.17-.6-.37-1.25-.52-1.92,0-.08.18-.26.31-.33a8.16,8.16,0,0,1,3.58-.74,5.09,5.09,0,0,1,2.64.64,2.88,2.88,0,0,1,.15,5C29.2,18.58,28.9,18.71,28.54,18.91Z"/><path class="cls-2" d="M33,30.84c1,.69.78,1.89,1.24,2.81-.71.19-.82.14-1-.48-.1-.36-.16-.73-.27-1.09a1.1,1.1,0,0,0-1.25-1h-.62V33.7h-.77c0-.12,0-.23,0-.33,0-1.75,0-3.51,0-5.26,0-.27.07-.39.35-.39.63,0,1.27-.06,1.89,0A1.48,1.48,0,0,1,34.06,29a1.59,1.59,0,0,1-.88,1.74Zm-1.89-.25a12.07,12.07,0,0,0,1.49-.22,1,1,0,0,0,.65-1,.92.92,0,0,0-.71-1,6.36,6.36,0,0,0-1.24-.07c-.06,0-.18.15-.18.24C31.14,29.18,31.15,29.83,31.15,30.59Z"/><path class="cls-2" d="M29.48,33.73a3.5,3.5,0,0,0-.46,0c-.29.05-.43-.08-.51-.36a11,11,0,0,0-.43-1.26.53.53,0,0,0-.37-.26c-.52,0-1.05,0-1.58,0a.33.33,0,0,0-.37.28c-.1.35-.22.69-.33,1-.22.65-.22.65-1,.53l.6-1.79c.43-1.26.87-2.52,1.29-3.79.09-.29.23-.45.56-.41s.54,0,.67.38C28.17,29.94,28.82,31.79,29.48,33.73Zm-3.43-2.55h1.76l-.89-2.69Z"/><path class="cls-2" d="M20.5,27.72h3.2v.63H21.29v1.9h1.76c.58,0,.58,0,.5.65-.61,0-1.23,0-1.84,0-.39,0-.48.12-.46.48,0,.55,0,1.1,0,1.69h2.6v.63H20.5Z"/><path class="cls-2" d="M35.06,32.92c.56.08,1.07.21,1.58.23a1,1,0,0,0,1.08-.8,1,1,0,0,0-.65-1.17,11.34,11.34,0,0,1-1.43-.74,1.47,1.47,0,0,1,0-2.46,2.3,2.3,0,0,1,1.65-.37,8.4,8.4,0,0,1,1,.23l-.22.65,0-.12a12.29,12.29,0,0,0-1.49-.07.79.79,0,0,0-.72.66.82.82,0,0,0,.39.94c.4.23.83.4,1.24.61a1.64,1.64,0,0,1,1,2A1.6,1.6,0,0,1,37,33.77a4.87,4.87,0,0,1-1.52-.09C34.82,33.55,34.82,33.48,35.06,32.92Z"/><path class="cls-2" d="M17.81,33.71H17c0-.6,0-1.19,0-1.77a2.57,2.57,0,0,0-.37-1.46c-.46-.75-.86-1.52-1.28-2.29-.08-.14-.14-.29-.21-.44.72-.13.79-.11,1.09.46.4.76.78,1.53,1.21,2.35l.63-1.23.54-1c.32-.64.34-.65,1.15-.56a3.76,3.76,0,0,1-.18.35c-.54,1-1.1,1.89-1.64,2.84a1.21,1.21,0,0,0-.15.57C17.8,32.21,17.81,32.94,17.81,33.71Z"/><path class="cls-3" d="M13.64,44.79c0,.42-.07.84-.11,1.27a9.28,9.28,0,0,0-.08,1c0,.4-.17.51-.51.54s-.57,0-.71-.36c-.36-1-.77-2.07-1.17-3.1,0-.12-.08-.25-.13-.37l.1-.05c.81-.2.83-.19,1.09.6a21.74,21.74,0,0,0,.73,2c.06-.85.12-1.7.17-2.55,0-.2,0-.45.3-.41s.68-.34.84.25A20.92,20.92,0,0,0,15,46.08c0-.73.09-1.46.14-2.19s.1-.82,1-.75l-.33,2.76c0,.35-.1.7-.12,1s-.13.37-.39.39c-.65.06-.65.07-.85-.54s-.45-1.33-.67-2Z"/><path class="cls-3" d="M35.44,42.85l-.25,4c-.82.13-.94.07-1.26-.6l-1.11-2.4-.17,2.89-.85,0,.25-4c.76-.22,1.07-.08,1.36.56l1.05,2.25.13-2.72Z"/><path class="cls-3" d="M39.5,43.25c.34,0,.62.06.89.13.09,0,.18.17.22.28.14.48.27,1,.42,1.55.28-.47.53-.84.73-1.25a.52.52,0,0,1,.71-.32,3,3,0,0,0,.54.08c-.26.35-.46.65-.7.93a3.69,3.69,0,0,0-1.13,2.55,1.35,1.35,0,0,1-.08.39l-.82-.11c-.11-.72.33-1.42,0-2.14S39.77,44,39.5,43.25Z"/><path class="cls-3" d="M39.18,43.21,39.1,44,38,43.89l-.34,3.28-.9-.1.31-3.28L36,43.65l0-.75Z"/><path class="cls-3" d="M22.85,44.78c.62.49.61,1.22.89,1.88a3.33,3.33,0,0,1-.69,0,.53.53,0,0,1-.34-.25c-.12-.25-.16-.54-.28-.8a1,1,0,0,0-.37-.44c-.37-.18-.54-.05-.53.36v1.2l-.86.08c0-.45,0-.85-.06-1.25,0-.8-.06-1.59-.14-2.38,0-.39.13-.51.47-.53s.83-.06,1.24-.06a1.14,1.14,0,0,1,1.22.8A1.13,1.13,0,0,1,22.85,44.78Zm-1.4-1.41c0,.25,0,.45,0,.65,0,.48.22.59.67.41a.56.56,0,0,0,.41-.65.51.51,0,0,0-.58-.44A3,3,0,0,0,21.45,43.37Z"/><path class="cls-3" d="M26.63,44.67l.74,1.94a4.73,4.73,0,0,1-.77,0,.46.46,0,0,1-.3-.23c-.1-.24-.15-.51-.23-.77-.15-.52-.34-.62-.92-.51,0,.41,0,.83,0,1.24s-.23.33-.45.33-.49.11-.49-.28c0-1.23,0-2.46,0-3.76a6.1,6.1,0,0,1,.78-.11c.31,0,.62,0,.93,0a1.11,1.11,0,0,1,.73,2,.82.82,0,0,1-.17.11Zm-1.5-.36c.63.11,1-.07,1.08-.48s-.22-.61-.66-.63S25.1,43.17,25.13,44.31Z"/><path class="cls-3" d="M20.11,46.83l-.23,0c-.69.1-.71.11-.95-.54a.47.47,0,0,0-.62-.38c-.22,0-.45,0-.7.08,0,.13-.07.26-.1.38-.17.77-.18.78-1.05.72l.39-1.93c.13-.63.27-1.26.4-1.89a.37.37,0,0,1,.39-.36c.89-.07.88-.08,1.22.74l1.24,3A1,1,0,0,1,20.11,46.83Zm-2.11-3-.08,0-.25,1.51.89-.09Z"/></g></g></svg>